<svg xmlns="http://www.w3.org/2000/svg" width="800px" height="800px">
<g><path d="M 391.5,-0.5 C 396.833,-0.5 402.167,-0.5 407.5,-0.5C 410.9,1.03697 414.233,2.8703 417.5,5C 482.903,69.0639 561.569,105.064 653.5,113C 673.131,114.688 692.798,115.688 712.5,116C 724.549,119.382 731.716,127.216 734,139.5C 734.796,185.278 735.629,230.778 736.5,276C 737.082,339.776 731.248,402.943 719,465.5C 690.933,596.498 618.433,693.998 501.5,758C 470.669,774.09 439.003,787.923 406.5,799.5C 401.833,799.5 397.167,799.5 392.5,799.5C 325.778,777.984 265.778,744.817 212.5,700C 145.24,639.358 101.74,564.525 82,475.5C 69.1007,415.506 62.6007,354.839 62.5,293.5C 63.1369,242.011 63.9703,190.344 65,138.5C 67.7232,126.776 74.8899,119.276 86.5,116C 146.426,116.928 204.426,106.928 260.5,86C 306.24,66.9004 346.573,39.9004 381.5,5C 384.767,2.8703 388.1,1.03697 391.5,-0.5 Z M 398.5,66.5 C 478.757,133.938 571.757,168.938 677.5,171.5C 679.925,232.513 679.758,293.513 677,354.5C 674.523,409.699 664.19,463.366 646,515.5C 613.143,599.686 556.977,663.186 477.5,706C 452.157,719.17 426.157,731.003 399.5,741.5C 346.587,722.389 298.254,695.556 254.5,661C 197.16,611.259 158.994,549.426 140,475.5C 126.349,418.326 119.682,360.326 120,301.5C 119.822,258.161 120.322,214.827 121.5,171.5C 217.166,169.114 303.166,139.614 379.5,83C 386.279,77.9545 392.612,72.4545 398.5,66.5 Z"/></g>
</svg>
